<svg width="166" height="28" viewBox="0 0 166 28" fill="none" xmlns="http://www.w3.org/2000/svg">
<g clip-path="url(#clip0_3324_33600)">
<path d="M19.2662 7.60186C18.8925 7.60186 18.5891 7.91093 18.5891 8.28505V9.53215C18.5891 9.9117 18.8925 10.2153 19.2662 10.2153C19.6399 10.2153 19.9487 9.9117 19.9487 9.53215V8.28505C19.9487 7.91093 19.6454 7.60186 19.2662 7.60186ZM12.3872 7.60186C12.008 7.60186 11.7047 7.91093 11.7047 8.28505V9.53215C11.7047 9.9117 12.008 10.2153 12.3872 10.2153C12.7664 10.2153 13.0643 9.9117 13.0643 9.53215V8.28505C13.0643 7.91093 12.7609 7.60186 12.3872 7.60186ZM12.3872 7.60186C12.008 7.60186 11.7047 7.91093 11.7047 8.28505V9.53215C11.7047 9.9117 12.008 10.2153 12.3872 10.2153C12.7664 10.2153 13.0643 9.9117 13.0643 9.53215V8.28505C13.0643 7.91093 12.7609 7.60186 12.3872 7.60186ZM19.2662 7.60186C18.8925 7.60186 18.5891 7.91093 18.5891 8.28505V9.53215C18.5891 9.9117 18.8925 10.2153 19.2662 10.2153C19.6399 10.2153 19.9487 9.9117 19.9487 9.53215V8.28505C19.9487 7.91093 19.6454 7.60186 19.2662 7.60186ZM19.2662 7.60186C18.8925 7.60186 18.5891 7.91093 18.5891 8.28505V9.53215C18.5891 9.9117 18.8925 10.2153 19.2662 10.2153C19.6399 10.2153 19.9487 9.9117 19.9487 9.53215V8.28505C19.9487 7.91093 19.6454 7.60186 19.2662 7.60186ZM12.3872 7.60186C12.008 7.60186 11.7047 7.91093 11.7047 8.28505V9.53215C11.7047 9.9117 12.008 10.2153 12.3872 10.2153C12.7664 10.2153 13.0643 9.9117 13.0643 9.53215V8.28505C13.0643 7.91093 12.7609 7.60186 12.3872 7.60186ZM12.3872 7.60186C12.008 7.60186 11.7047 7.91093 11.7047 8.28505V9.53215C11.7047 9.9117 12.008 10.2153 12.3872 10.2153C12.7664 10.2153 13.0643 9.9117 13.0643 9.53215V8.28505C13.0643 7.91093 12.7609 7.60186 12.3872 7.60186ZM19.2662 7.60186C18.8925 7.60186 18.5891 7.91093 18.5891 8.28505V9.53215C18.5891 9.9117 18.8925 10.2153 19.2662 10.2153C19.6399 10.2153 19.9487 9.9117 19.9487 9.53215V8.28505C19.9487 7.91093 19.6454 7.60186 19.2662 7.60186ZM19.2662 7.60186C18.8925 7.60186 18.5891 7.91093 18.5891 8.28505V9.53215C18.5891 9.9117 18.8925 10.2153 19.2662 10.2153C19.6399 10.2153 19.9487 9.9117 19.9487 9.53215V8.28505C19.9487 7.91093 19.6454 7.60186 19.2662 7.60186ZM12.3872 7.60186C12.008 7.60186 11.7047 7.91093 11.7047 8.28505V9.53215C11.7047 9.9117 12.008 10.2153 12.3872 10.2153C12.7664 10.2153 13.0643 9.9117 13.0643 9.53215V8.28505C13.0643 7.91093 12.7609 7.60186 12.3872 7.60186ZM12.3872 7.60186C12.008 7.60186 11.7047 7.91093 11.7047 8.28505V9.53215C11.7047 9.9117 12.008 10.2153 12.3872 10.2153C12.7664 10.2153 13.0643 9.9117 13.0643 9.53215V8.28505C13.0643 7.91093 12.7609 7.60186 12.3872 7.60186ZM19.2662 7.60186C18.8925 7.60186 18.5891 7.91093 18.5891 8.28505V9.53215C18.5891 9.9117 18.8925 10.2153 19.2662 10.2153C19.6399 10.2153 19.9487 9.9117 19.9487 9.53215V8.28505C19.9487 7.91093 19.6454 7.60186 19.2662 7.60186ZM19.2662 7.60186C18.8925 7.60186 18.5891 7.91093 18.5891 8.28505V9.53215C18.5891 9.9117 18.8925 10.2153 19.2662 10.2153C19.6399 10.2153 19.9487 9.9117 19.9487 9.53215V8.28505C19.9487 7.91093 19.6454 7.60186 19.2662 7.60186ZM12.3872 7.60186C12.008 7.60186 11.7047 7.91093 11.7047 8.28505V9.53215C11.7047 9.9117 12.008 10.2153 12.3872 10.2153C12.7664 10.2153 13.0643 9.9117 13.0643 9.53215V8.28505C13.0643 7.91093 12.7609 7.60186 12.3872 7.60186ZM30.5759 12.1782C30.5759 11.945 30.538 11.7119 30.4568 11.4895C30.1859 10.7467 29.5143 10.2316 28.5556 10.031C27.9543 9.90628 27.2773 9.91712 26.5894 10.0581V6.91325C26.5894 6.17041 26.4594 5.57398 26.2048 5.14563C26.1885 5.11309 26.1669 5.08056 26.1452 5.05345C25.766 4.53835 25.0944 4.08289 24.1519 3.70876C23.2094 3.33463 21.942 3.1069 20.3712 3.03641L20.8966 1.94113C21.0374 1.64292 20.9128 1.28505 20.6203 1.14408C20.3224 0.99768 19.9649 1.12781 19.8241 1.42061L19.0658 2.99845H12.6039L11.8455 1.42061C11.7047 1.12239 11.3472 0.99768 11.0493 1.14408C10.7514 1.28505 10.6268 1.64292 10.7731 1.94113L11.2985 3.03641C9.72226 3.11232 8.45479 3.34005 7.51773 3.70876C6.57525 4.08289 5.9036 4.53292 5.51361 5.05345C5.49736 5.08056 5.48111 5.10767 5.45944 5.1402C5.20487 5.56855 5.07487 6.16499 5.07487 6.90783V10.0473C4.39239 9.90628 3.71532 9.89543 3.11408 10.0256C2.63201 10.1232 2.22577 10.3021 1.9062 10.5515C1.58662 10.8009 1.34829 11.1154 1.21288 11.4841C0.844556 12.4872 1.33204 13.6693 2.4641 14.5639C2.36119 15.8056 3.41199 17.1557 5.08029 17.8823V21.206C5.08029 22.0085 5.16154 22.5779 5.31861 22.9466C5.32945 22.9737 5.34028 22.9954 5.35653 23.0225C5.68152 23.6352 6.27192 24.134 7.16024 24.5461C8.40062 25.1317 10.2097 25.4245 12.5497 25.4245C13.4218 25.4245 14.1638 25.739 14.7217 26.0914C15.128 26.3462 15.4313 26.6174 15.6317 26.8126C15.6859 26.8722 15.7617 26.8993 15.8429 26.8993C15.9242 26.8993 16 26.8668 16.0542 26.8126C16.2492 26.6174 16.5579 26.3408 16.9588 26.0914C17.5167 25.739 18.2587 25.4245 19.1308 25.4245C21.4707 25.4245 23.2853 25.1263 24.5202 24.5461C25.4086 24.134 25.999 23.6352 26.3239 23.0225C26.3348 22.9899 26.3456 22.9628 26.3564 22.9411C26.5135 22.5724 26.5894 22.0085 26.5894 21.206V17.8823C28.2576 17.1557 29.3139 15.8002 29.2055 14.5639C30.083 13.8645 30.5759 12.9969 30.5759 12.1727V12.1782ZM28.2089 13.8102L27.8352 14.0651L27.976 14.4934C28.1656 15.0736 27.6077 15.9845 26.5027 16.5918C26.4377 16.2665 26.3402 15.9899 26.2048 15.7568C26.1831 15.7242 26.1614 15.6917 26.1398 15.6592C25.7606 15.1441 25.089 14.694 24.1519 14.3199C24.0544 14.282 23.9461 14.2386 23.8378 14.206C24.0815 14.1247 24.3036 14.038 24.5094 13.9404C25.4031 13.5283 25.9935 13.0294 26.3185 12.4113C26.3348 12.3842 26.3456 12.3517 26.3564 12.3354C26.4648 12.086 26.5298 11.7444 26.5677 11.2943C27.1798 11.1263 27.7972 11.0992 28.3118 11.2076C28.4689 11.2401 28.6801 11.2998 28.8806 11.4082C29.0755 11.5167 29.2543 11.6739 29.3355 11.9016C29.536 12.4438 29.0755 13.2301 28.2143 13.8102H28.2089ZM21.5953 14.9489C21.5953 14.9489 21.6224 14.9489 21.6332 14.9489C21.7145 14.9597 21.7957 14.9706 21.877 14.9814C22.034 15.0031 22.1857 15.0248 22.332 15.0573C22.3428 15.0573 22.3536 15.0573 22.3699 15.0627C22.8844 15.1549 23.334 15.2796 23.7132 15.4315C24.6232 15.7893 25.0131 16.1363 25.1811 16.3641C25.2244 16.44 25.2677 16.543 25.3056 16.6894H6.35317C6.39109 16.543 6.43984 16.4346 6.47775 16.3641C6.64567 16.1363 7.04107 15.7839 7.94564 15.4315C8.32479 15.2796 8.76895 15.1603 9.28352 15.0627C9.59768 15.0031 9.9335 14.9597 10.291 14.9163C10.5727 14.8892 10.8706 14.8621 11.1793 14.8459C11.2768 14.8404 11.3797 14.835 11.4826 14.8296C11.8185 14.8187 12.1651 14.8079 12.5334 14.8079H19.12C19.4829 14.8079 19.8349 14.8133 20.1708 14.8296C20.2737 14.8296 20.3766 14.835 20.4741 14.8459C20.6907 14.8567 20.902 14.873 21.1024 14.8892C21.1891 14.8947 21.2757 14.9055 21.357 14.9109C21.4382 14.9163 21.5141 14.9272 21.5899 14.938L21.5953 14.9489ZM6.26651 6.91325C6.26651 6.25717 6.38567 5.921 6.47775 5.76375C6.64567 5.53602 7.03566 5.18358 7.94564 4.82572C8.86645 4.46244 10.1772 4.25639 11.8564 4.21844C12.073 4.21302 12.3005 4.20759 12.528 4.20759H19.1145C19.3474 4.20759 19.5695 4.20759 19.7862 4.21844C21.4653 4.25639 22.7815 4.46244 23.7023 4.83114C24.6069 5.18358 24.9969 5.5306 25.1702 5.76375C25.2677 5.93184 25.3815 6.26801 25.3815 6.91325V10.6003C25.3815 10.7847 25.3815 10.9473 25.3706 11.0883C25.3544 11.4624 25.3056 11.6685 25.2786 11.7769C25.2731 11.8149 25.2623 11.8366 25.2515 11.8583C25.0565 12.227 24.6502 12.5577 24.0003 12.8559C23.7348 12.9806 23.4261 13.0945 23.0903 13.1921C22.8086 13.2734 22.4999 13.3385 22.1695 13.3981C21.942 13.4361 21.6982 13.4741 21.4436 13.5012C20.7503 13.5825 19.9758 13.6259 19.1145 13.6259H12.528C11.6722 13.6259 10.8922 13.5825 10.1989 13.5066C9.94434 13.4795 9.70601 13.4415 9.4731 13.3981C9.14269 13.3385 8.83395 13.2734 8.54687 13.1921C8.21105 13.0999 7.90772 12.9861 7.63689 12.8614C6.99232 12.5631 6.58608 12.2378 6.39109 11.8691C6.38567 11.8528 6.37484 11.8257 6.35859 11.7823C6.32609 11.6685 6.28276 11.4624 6.26651 11.0937C6.26109 10.9528 6.25568 10.7955 6.25568 10.6057V6.91867L6.26651 6.91325ZM5.50819 15.6646C5.50819 15.6646 5.47028 15.7188 5.44861 15.7514C5.3132 15.9899 5.21028 16.2665 5.14529 16.5918C4.04573 15.9845 3.48783 15.0736 3.6774 14.4934L3.81823 14.0651L3.44449 13.8102C2.71868 13.3168 2.27452 12.6824 2.27452 12.1727C2.27452 12.0806 2.29077 11.9884 2.32327 11.9016C2.49118 11.4516 3.03284 11.2727 3.347 11.2076C3.54199 11.1642 3.75865 11.1425 3.98073 11.1425C4.33281 11.1425 4.71196 11.1913 5.0857 11.2943C5.1182 11.7444 5.18862 12.086 5.30237 12.3408C5.3132 12.3625 5.32403 12.3896 5.34028 12.4167C5.66527 13.0294 6.25568 13.5283 7.13857 13.9404C7.34982 14.038 7.57189 14.1301 7.81564 14.2115C7.70731 14.244 7.60439 14.2874 7.50148 14.3253C6.559 14.6995 5.88735 15.1495 5.50278 15.67L5.50819 15.6646ZM25.2515 22.4748C25.0565 22.8435 24.6448 23.1689 24.0057 23.4671C22.9278 23.9768 21.2866 24.2316 19.1254 24.2316H12.5389C10.3722 24.2316 8.73103 23.9768 7.65856 23.4671C7.01399 23.1689 6.60775 22.8435 6.40734 22.4694C6.39651 22.4477 6.38567 22.4043 6.36942 22.3501H25.3002C25.2894 22.4098 25.2731 22.4477 25.2623 22.4748H25.2515ZM25.3869 20.4686H6.26651V18.5871H25.3869V20.4686ZM19.2662 10.2153C19.6454 10.2153 19.9487 9.9117 19.9487 9.53215V8.28505C19.9487 7.91093 19.6454 7.60186 19.2662 7.60186C18.887 7.60186 18.5891 7.91093 18.5891 8.28505V9.53215C18.5891 9.9117 18.8925 10.2153 19.2662 10.2153ZM12.3872 10.2153C12.7609 10.2153 13.0643 9.9117 13.0643 9.53215V8.28505C13.0643 7.91093 12.7609 7.60186 12.3872 7.60186C12.0135 7.60186 11.7047 7.91093 11.7047 8.28505V9.53215C11.7047 9.9117 12.008 10.2153 12.3872 10.2153ZM12.3872 7.60186C12.008 7.60186 11.7047 7.91093 11.7047 8.28505V9.53215C11.7047 9.9117 12.008 10.2153 12.3872 10.2153C12.7664 10.2153 13.0643 9.9117 13.0643 9.53215V8.28505C13.0643 7.91093 12.7609 7.60186 12.3872 7.60186ZM19.2662 7.60186C18.8925 7.60186 18.5891 7.91093 18.5891 8.28505V9.53215C18.5891 9.9117 18.8925 10.2153 19.2662 10.2153C19.6399 10.2153 19.9487 9.9117 19.9487 9.53215V8.28505C19.9487 7.91093 19.6454 7.60186 19.2662 7.60186ZM19.2662 7.60186C18.8925 7.60186 18.5891 7.91093 18.5891 8.28505V9.53215C18.5891 9.9117 18.8925 10.2153 19.2662 10.2153C19.6399 10.2153 19.9487 9.9117 19.9487 9.53215V8.28505C19.9487 7.91093 19.6454 7.60186 19.2662 7.60186ZM12.3872 7.60186C12.008 7.60186 11.7047 7.91093 11.7047 8.28505V9.53215C11.7047 9.9117 12.008 10.2153 12.3872 10.2153C12.7664 10.2153 13.0643 9.9117 13.0643 9.53215V8.28505C13.0643 7.91093 12.7609 7.60186 12.3872 7.60186ZM12.3872 7.60186C12.008 7.60186 11.7047 7.91093 11.7047 8.28505V9.53215C11.7047 9.9117 12.008 10.2153 12.3872 10.2153C12.7664 10.2153 13.0643 9.9117 13.0643 9.53215V8.28505C13.0643 7.91093 12.7609 7.60186 12.3872 7.60186ZM19.2662 7.60186C18.8925 7.60186 18.5891 7.91093 18.5891 8.28505V9.53215C18.5891 9.9117 18.8925 10.2153 19.2662 10.2153C19.6399 10.2153 19.9487 9.9117 19.9487 9.53215V8.28505C19.9487 7.91093 19.6454 7.60186 19.2662 7.60186ZM19.2662 7.60186C18.8925 7.60186 18.5891 7.91093 18.5891 8.28505V9.53215C18.5891 9.9117 18.8925 10.2153 19.2662 10.2153C19.6399 10.2153 19.9487 9.9117 19.9487 9.53215V8.28505C19.9487 7.91093 19.6454 7.60186 19.2662 7.60186ZM12.3872 7.60186C12.008 7.60186 11.7047 7.91093 11.7047 8.28505V9.53215C11.7047 9.9117 12.008 10.2153 12.3872 10.2153C12.7664 10.2153 13.0643 9.9117 13.0643 9.53215V8.28505C13.0643 7.91093 12.7609 7.60186 12.3872 7.60186ZM12.3872 7.60186C12.008 7.60186 11.7047 7.91093 11.7047 8.28505V9.53215C11.7047 9.9117 12.008 10.2153 12.3872 10.2153C12.7664 10.2153 13.0643 9.9117 13.0643 9.53215V8.28505C13.0643 7.91093 12.7609 7.60186 12.3872 7.60186ZM19.2662 7.60186C18.8925 7.60186 18.5891 7.91093 18.5891 8.28505V9.53215C18.5891 9.9117 18.8925 10.2153 19.2662 10.2153C19.6399 10.2153 19.9487 9.9117 19.9487 9.53215V8.28505C19.9487 7.91093 19.6454 7.60186 19.2662 7.60186Z" fill="#292929"/>
<path d="M20.3547 1.08443C20.4414 1.08443 20.5281 1.10612 20.6147 1.14407C20.9126 1.28505 21.0318 1.64291 20.891 1.94113L20.3656 3.03641C21.9418 3.11232 23.2092 3.34005 24.1463 3.70875C25.0888 4.08288 25.7604 4.53292 26.1396 5.05345C26.1613 5.08056 26.1829 5.11309 26.1992 5.14562C26.4538 5.57397 26.5837 6.17041 26.5837 6.91325V10.0581C26.9521 9.98218 27.315 9.94423 27.6671 9.94423C27.9758 9.94423 28.2683 9.97134 28.55 10.031C29.5087 10.2316 30.1803 10.7467 30.4512 11.4895C30.5324 11.7119 30.5703 11.945 30.5703 12.1782C30.5703 13.0023 30.0774 13.8699 29.1999 14.5693C29.3028 15.811 28.252 17.1665 26.5837 17.8877V21.2115C26.5837 22.0139 26.5079 22.5778 26.3508 22.9466C26.34 22.9682 26.3292 22.9954 26.3183 23.0225C25.9933 23.6406 25.4029 24.1394 24.5146 24.5515C23.2742 25.1371 21.4651 25.4299 19.1252 25.4299C18.2531 25.4299 17.511 25.7444 16.9531 26.0968C16.5523 26.3517 16.2436 26.6228 16.0486 26.818C15.9944 26.8776 15.9186 26.9047 15.8373 26.9047C15.7561 26.9047 15.6803 26.8722 15.6261 26.818C15.4311 26.6228 15.1224 26.3462 14.7161 26.0968C14.1582 25.7444 13.4161 25.4299 12.5441 25.4299C10.2041 25.4299 8.3896 25.1317 7.15463 24.5515C6.26632 24.1394 5.67592 23.6406 5.35092 23.0279C5.33467 23.0008 5.32384 22.9791 5.31301 22.952C5.15051 22.5833 5.07468 22.0194 5.07468 21.2115V17.8877C3.40639 17.1611 2.35558 15.811 2.45849 14.5693C1.32644 13.6692 0.838947 12.4926 1.20727 11.4895C1.34269 11.1208 1.58101 10.8064 1.90059 10.5569C2.22016 10.3075 2.63182 10.134 3.10848 10.031C3.39014 9.97134 3.68805 9.94423 3.99679 9.94423C4.34886 9.94423 4.70635 9.98218 5.06926 10.0581V6.91867C5.06926 6.17583 5.19926 5.5794 5.45384 5.15105C5.4755 5.11851 5.49175 5.0914 5.508 5.06429C5.89258 4.54376 6.56423 4.0883 7.51212 3.7196C8.44918 3.34547 9.71665 3.11774 11.2929 3.04725L10.7675 1.95198C10.6266 1.65376 10.7512 1.29589 11.0437 1.15492C11.125 1.11154 11.217 1.09528 11.3037 1.09528C11.5258 1.09528 11.737 1.21998 11.8399 1.43145L12.5982 3.0093H19.0602L19.8185 1.43145C19.9214 1.21998 20.1327 1.09528 20.3547 1.09528M12.5333 13.6259H19.1198C19.981 13.6259 20.7556 13.5825 21.4489 13.5012C21.7034 13.4741 21.9472 13.4361 22.1747 13.3981C22.5051 13.3385 22.8084 13.2734 23.0955 13.1921C23.4313 13.0945 23.7401 12.9861 24.0055 12.8559C24.6555 12.5577 25.0617 12.227 25.2567 11.8582C25.2621 11.842 25.2729 11.8149 25.2838 11.7769C25.3163 11.6685 25.3596 11.457 25.3759 11.0883C25.3813 10.9473 25.3867 10.7901 25.3867 10.6003V6.91325C25.3867 6.26801 25.2729 5.93184 25.1754 5.76375C25.0021 5.5306 24.6121 5.18358 23.7076 4.83114C22.7868 4.46243 21.476 4.25639 19.7914 4.21844C19.5747 4.21301 19.3473 4.20759 19.1143 4.20759H12.5278C12.2949 4.20759 12.0728 4.20759 11.8562 4.21844C10.1771 4.25639 8.86084 4.46243 7.94544 4.82572C7.03547 5.18358 6.64547 5.53602 6.47756 5.76375C6.38548 5.92641 6.26632 6.26259 6.26632 6.91325V10.6003C6.26632 10.7847 6.26632 10.9473 6.27715 11.0883C6.2934 11.457 6.33673 11.6685 6.36923 11.7769C6.38006 11.8149 6.3909 11.842 6.40173 11.8582C6.59673 12.227 7.00297 12.5523 7.64753 12.8505C7.91294 12.9752 8.21627 13.0891 8.55751 13.1813C8.83917 13.2626 9.14791 13.3331 9.48374 13.3873C9.71665 13.4307 9.95498 13.4686 10.2096 13.4957C10.9029 13.5771 11.6829 13.615 12.5387 13.615M5.15051 16.5918C5.21551 16.2665 5.31842 15.9899 5.45384 15.7568C5.47009 15.7188 5.49175 15.6917 5.51342 15.6646C5.89258 15.1495 6.56423 14.694 7.51212 14.3199C7.60962 14.282 7.71795 14.2386 7.82628 14.206C7.58254 14.1247 7.35504 14.038 7.14921 13.9349C6.2609 13.5229 5.6705 13.024 5.35092 12.4113C5.33467 12.3842 5.32384 12.3625 5.31301 12.3354C5.20468 12.086 5.13426 11.739 5.09635 11.2889C4.7226 11.1913 4.34345 11.1371 3.99137 11.1371C3.76929 11.1371 3.55263 11.1588 3.35764 11.2022C3.04348 11.2672 2.50182 11.4462 2.33391 11.8962C2.30141 11.9775 2.28516 12.0697 2.28516 12.1673C2.28516 12.677 2.72932 13.3168 3.45513 13.8048L3.82888 14.0596L3.68805 14.488C3.49847 15.0627 4.05637 15.9737 5.15593 16.5864M26.5079 16.5864C27.6129 15.9791 28.1708 15.0682 27.9812 14.488L27.8404 14.0596L28.2141 13.8048C29.0699 13.2246 29.5358 12.4384 29.3353 11.8962C29.2541 11.6685 29.0754 11.5112 28.8804 11.4028C28.6854 11.2943 28.4687 11.2347 28.3116 11.2022C28.1112 11.1588 27.8946 11.1371 27.6725 11.1371C27.3204 11.1371 26.9467 11.1859 26.5675 11.2889C26.535 11.7335 26.4646 12.0806 26.3563 12.33C26.3508 12.3462 26.3346 12.3734 26.3183 12.4059C25.9933 13.024 25.4029 13.5229 24.5092 13.9349C24.3034 14.0325 24.0759 14.1247 23.8321 14.2006C23.9405 14.2386 24.0488 14.2765 24.1463 14.3145C25.0834 14.6832 25.755 15.1332 26.1342 15.6538C26.1558 15.6863 26.1775 15.7188 26.1992 15.7514C26.3346 15.9845 26.4375 16.261 26.4971 16.5864M6.34757 16.6948H25.2946C25.2567 16.5484 25.2134 16.4454 25.17 16.3695C25.0021 16.1363 24.6121 15.7893 23.7022 15.4369C23.323 15.2851 22.8734 15.1603 22.3589 15.0682C22.348 15.0682 22.3372 15.0627 22.3209 15.0627C22.1747 15.0356 22.023 15.0085 21.8659 14.9868C21.7847 14.976 21.7034 14.9651 21.6222 14.9543C21.6114 14.9543 21.5951 14.9543 21.5843 14.9543C21.5085 14.9489 21.4326 14.938 21.3514 14.9272C21.2701 14.9218 21.1835 14.9109 21.0968 14.9055C20.8964 14.8892 20.6851 14.873 20.4685 14.8621C20.371 14.8567 20.2681 14.8513 20.1652 14.8459C19.8293 14.835 19.4827 14.8242 19.1143 14.8242H12.5278C12.1649 14.8242 11.8129 14.8296 11.477 14.8459C11.3741 14.8459 11.2712 14.8513 11.1737 14.8621C10.865 14.8784 10.567 14.9001 10.2854 14.9326C9.9279 14.9706 9.59207 15.0194 9.27791 15.079C8.76876 15.1766 8.31919 15.2959 7.94003 15.4477C7.03005 15.8056 6.64006 16.1526 6.47215 16.3803C6.42881 16.4562 6.38548 16.5593 6.34757 16.7057M6.2609 20.4741H25.3813V18.5926H6.26632V20.4741M12.5333 24.237H19.1198C21.2864 24.237 22.9276 23.9822 24.0001 23.4725C24.6392 23.1743 25.0509 22.849 25.2459 22.4802C25.2567 22.4586 25.2729 22.4152 25.2838 22.3555H6.36382C6.38006 22.4098 6.3909 22.4477 6.40173 22.4748C6.59673 22.849 7.00838 23.1743 7.65295 23.4725C8.73084 23.9822 10.3721 24.237 12.5333 24.237ZM19.266 7.60728C18.8869 7.60728 18.5889 7.91634 18.5889 8.29047C18.5889 7.91634 18.8923 7.60728 19.266 7.60728ZM19.266 7.60728C18.8869 7.60728 18.5889 7.91634 18.5889 8.29047C18.5889 7.91634 18.8923 7.60728 19.266 7.60728ZM19.266 7.60728C18.8869 7.60728 18.5889 7.91634 18.5889 8.29047C18.5889 7.91634 18.8923 7.60728 19.266 7.60728ZM19.266 7.60728C18.8869 7.60728 18.5889 7.91634 18.5889 8.29047C18.5889 7.91634 18.8923 7.60728 19.266 7.60728ZM19.266 7.60728C18.8869 7.60728 18.5889 7.91634 18.5889 8.29047C18.5889 7.91634 18.8923 7.60728 19.266 7.60728ZM19.266 7.60728C18.8869 7.60728 18.5889 7.91634 18.5889 8.29047C18.5889 7.91634 18.8923 7.60728 19.266 7.60728ZM19.266 7.60728C19.6452 7.60728 19.9485 7.91634 19.9485 8.29047V9.53757C19.9485 9.91712 19.6452 10.2208 19.266 10.2208C18.8869 10.2208 18.5889 9.91712 18.5889 9.53757V8.29047C18.5889 7.91634 18.8923 7.60728 19.266 7.60728ZM12.387 7.60728C12.0133 7.60728 11.7045 7.91634 11.7045 8.29047C11.7045 7.91634 12.0078 7.60728 12.387 7.60728ZM12.387 7.60728C12.0133 7.60728 11.7045 7.91634 11.7045 8.29047C11.7045 7.91634 12.0078 7.60728 12.387 7.60728ZM12.387 7.60728C12.0133 7.60728 11.7045 7.91634 11.7045 8.29047C11.7045 7.91634 12.0078 7.60728 12.387 7.60728ZM12.387 7.60728C12.0133 7.60728 11.7045 7.91634 11.7045 8.29047C11.7045 7.91634 12.0078 7.60728 12.387 7.60728ZM12.387 7.60728C12.0133 7.60728 11.7045 7.91634 11.7045 8.29047C11.7045 7.91634 12.0078 7.60728 12.387 7.60728ZM12.387 7.60728C12.0133 7.60728 11.7045 7.91634 11.7045 8.29047C11.7045 7.91634 12.0078 7.60728 12.387 7.60728ZM12.387 7.60728C12.7607 7.60728 13.0641 7.91634 13.0641 8.29047V9.53757C13.0641 9.91712 12.7607 10.2208 12.387 10.2208C12.0133 10.2208 11.7045 9.91712 11.7045 9.53757V8.29047C11.7045 7.91634 12.0078 7.60728 12.387 7.60728ZM18.5889 9.53757C18.5889 9.91712 18.8923 10.2208 19.266 10.2208C19.6397 10.2208 19.9485 9.91712 19.9485 9.53757C19.9485 9.91712 19.6452 10.2208 19.266 10.2208C18.8869 10.2208 18.5889 9.91712 18.5889 9.53757ZM18.5889 9.53757C18.5889 9.91712 18.8923 10.2208 19.266 10.2208C19.6397 10.2208 19.9485 9.91712 19.9485 9.53757C19.9485 9.91712 19.6452 10.2208 19.266 10.2208C18.8869 10.2208 18.5889 9.91712 18.5889 9.53757ZM18.5889 9.53757C18.5889 9.91712 18.8923 10.2208 19.266 10.2208C19.6397 10.2208 19.9485 9.91712 19.9485 9.53757C19.9485 9.91712 19.6452 10.2208 19.266 10.2208C18.8869 10.2208 18.5889 9.91712 18.5889 9.53757ZM18.5889 9.53757C18.5889 9.91712 18.8923 10.2208 19.266 10.2208C19.6397 10.2208 19.9485 9.91712 19.9485 9.53757C19.9485 9.91712 19.6452 10.2208 19.266 10.2208C18.8869 10.2208 18.5889 9.91712 18.5889 9.53757ZM18.5889 9.53757C18.5889 9.91712 18.8923 10.2208 19.266 10.2208C19.6397 10.2208 19.9485 9.91712 19.9485 9.53757C19.9485 9.91712 19.6452 10.2208 19.266 10.2208C18.8869 10.2208 18.5889 9.91712 18.5889 9.53757ZM18.5889 9.53757C18.5889 9.91712 18.8923 10.2208 19.266 10.2208C19.6397 10.2208 19.9485 9.91712 19.9485 9.53757C19.9485 9.91712 19.6452 10.2208 19.266 10.2208C18.8869 10.2208 18.5889 9.91712 18.5889 9.53757ZM11.7045 9.53757C11.7045 9.91712 12.0078 10.2208 12.387 10.2208C12.7662 10.2208 13.0641 9.91712 13.0641 9.53757C13.0641 9.91712 12.7607 10.2208 12.387 10.2208C12.0133 10.2208 11.7045 9.91712 11.7045 9.53757ZM11.7045 9.53757C11.7045 9.91712 12.0078 10.2208 12.387 10.2208C12.7662 10.2208 13.0641 9.91712 13.0641 9.53757C13.0641 9.91712 12.7607 10.2208 12.387 10.2208C12.0133 10.2208 11.7045 9.91712 11.7045 9.53757ZM11.7045 9.53757C11.7045 9.91712 12.0078 10.2208 12.387 10.2208C12.7662 10.2208 13.0641 9.91712 13.0641 9.53757C13.0641 9.91712 12.7607 10.2208 12.387 10.2208C12.0133 10.2208 11.7045 9.91712 11.7045 9.53757ZM11.7045 9.53757C11.7045 9.91712 12.0078 10.2208 12.387 10.2208C12.7662 10.2208 13.0641 9.91712 13.0641 9.53757C13.0641 9.91712 12.7607 10.2208 12.387 10.2208C12.0133 10.2208 11.7045 9.91712 11.7045 9.53757ZM11.7045 9.53757C11.7045 9.91712 12.0078 10.2208 12.387 10.2208C12.7662 10.2208 13.0641 9.91712 13.0641 9.53757C13.0641 9.91712 12.7607 10.2208 12.387 10.2208C12.0133 10.2208 11.7045 9.91712 11.7045 9.53757ZM11.7045 9.53757C11.7045 9.91712 12.0078 10.2208 12.387 10.2208C12.7662 10.2208 13.0641 9.91712 13.0641 9.53757C13.0641 9.91712 12.7607 10.2208 12.387 10.2208C12.0133 10.2208 11.7045 9.91712 11.7045 9.53757ZM20.3547 0C19.7156 0 19.1198 0.374129 18.8435 0.954299L18.3777 1.91402H13.2807L12.8149 0.948877C12.5387 0.374129 11.9428 0 11.3037 0C11.0491 0 10.8 0.0596437 10.5725 0.168087C10.1716 0.357862 9.86831 0.699458 9.72207 1.12781C9.61374 1.44229 9.59749 1.76762 9.67873 2.08211C8.68209 2.21224 7.82086 2.41828 7.11671 2.70023C5.98466 3.14485 5.15051 3.72502 4.64136 4.41363C4.59802 4.47328 4.57094 4.51665 4.54386 4.56545C4.54386 4.56545 4.52761 4.58714 4.52761 4.59256C4.17012 5.19442 3.99137 5.97521 3.99137 6.91325V8.8598C3.61221 8.8598 3.23847 8.89775 2.89181 8.96824C2.25808 9.09837 1.70018 9.34237 1.24519 9.69481C0.763116 10.0635 0.394791 10.5569 0.188963 11.1154C-0.293109 12.433 0.16188 13.9132 1.38602 15.0736C1.52685 16.4129 2.50182 17.7142 3.99137 18.56V21.2169C3.99137 22.1766 4.09429 22.8598 4.31636 23.3749C4.33803 23.4237 4.36511 23.4888 4.40303 23.5593C4.84177 24.3834 5.59467 25.0287 6.69964 25.5438C8.08086 26.1944 10.0471 26.5252 12.5441 26.5252C13.0803 26.5252 13.6166 26.6933 14.142 27.024C14.1582 27.0349 14.1745 27.0403 14.1853 27.0511C14.4182 27.2029 14.6457 27.3819 14.8569 27.5933C15.1115 27.8536 15.469 28 15.8319 28C16.1948 28 16.5523 27.8536 16.8069 27.5933C17.0181 27.3873 17.2348 27.2084 17.4677 27.0565C17.4894 27.0457 17.5056 27.0349 17.5273 27.024C18.0527 26.6933 18.5889 26.5252 19.1252 26.5252C21.6222 26.5252 23.5938 26.1944 24.9805 25.5438C26.0854 25.0287 26.8437 24.378 27.2825 23.543C27.2933 23.5213 27.3041 23.4942 27.315 23.4725L27.3529 23.3857C27.575 22.8706 27.6779 22.182 27.6779 21.2169V18.5655C29.1729 17.7196 30.1478 16.4129 30.2887 15.079C31.1716 14.2332 31.6699 13.2029 31.6699 12.1836C31.6699 11.8203 31.6049 11.4624 31.4857 11.1263C31.0849 10.0364 30.1045 9.25019 28.7883 8.97909C28.4362 8.9086 28.0679 8.87064 27.6833 8.87064V6.92409C27.6833 5.98064 27.5046 5.19984 27.1471 4.60341C27.1037 4.53292 27.0604 4.46785 27.0171 4.40821C26.5133 3.73044 25.6846 3.16112 24.558 2.71108C23.8484 2.42912 22.9926 2.22308 21.9959 2.09295C22.0718 1.77847 22.0609 1.44771 21.9526 1.13865C21.8064 0.710302 21.4976 0.368706 21.0914 0.178931C20.8639 0.0596437 20.6093 0 20.3547 0Z" fill="#ECEDF3"/>
<path d="M25.1752 5.76375C25.0019 5.53059 24.6119 5.18358 23.7074 4.83114C22.7865 4.46243 21.4757 4.25639 19.7912 4.21843C19.5745 4.21301 19.3471 4.20759 19.1196 4.20759H12.533C12.3001 4.20759 12.0781 4.20759 11.8614 4.21843C10.1823 4.25639 8.86605 4.46243 7.95066 4.82571C7.04068 5.18358 6.65069 5.53602 6.48277 5.76375C6.39069 5.92641 6.27153 6.26258 6.27153 6.91324V10.6003C6.27153 11.2835 6.33111 11.6197 6.37444 11.7769C6.38528 11.8149 6.39611 11.842 6.40694 11.8637C6.60194 12.2324 7.00818 12.5577 7.65275 12.8559C7.91816 12.9806 8.22148 13.0945 8.56272 13.1867C9.0448 13.3222 9.59187 13.4307 10.2094 13.5012C10.9027 13.5825 11.6827 13.6204 12.5385 13.6204H19.125C19.9862 13.6204 20.7608 13.5771 21.4541 13.4957C22.0716 13.4252 22.6186 13.3222 23.0953 13.1867C23.4311 13.0891 23.7399 12.9806 24.0053 12.8505C24.6553 12.5523 25.0615 12.2215 25.2565 11.8528C25.2619 11.8366 25.2727 11.8094 25.2836 11.7715C25.3269 11.6197 25.3919 11.2835 25.3919 10.5949V6.90782C25.3919 6.26258 25.2782 5.92641 25.1807 5.75832L25.1752 5.76375ZM13.0693 9.53214C13.0693 9.91169 12.766 10.2153 12.3922 10.2153C12.0185 10.2153 11.7097 9.91169 11.7097 9.53214V8.28505C11.7097 7.91092 12.0131 7.60186 12.3922 7.60186C12.7714 7.60186 13.0693 7.91092 13.0693 8.28505V9.53214ZM19.9537 9.53214C19.9537 9.91169 19.6504 10.2153 19.2712 10.2153C18.8921 10.2153 18.5942 9.91169 18.5942 9.53214V8.28505C18.5942 7.91092 18.8975 7.60186 19.2712 7.60186C19.645 7.60186 19.9537 7.91092 19.9537 8.28505V9.53214ZM25.2944 22.3501C25.2836 22.4098 25.2673 22.4477 25.2565 22.4748C25.0615 22.8435 24.6498 23.1689 24.0107 23.4671C22.9328 23.9768 21.2916 24.2316 19.1304 24.2316H12.5439C10.3773 24.2316 8.73605 23.9768 7.66358 23.4671C7.01901 23.1689 6.61277 22.8435 6.41236 22.4694C6.40153 22.4477 6.39069 22.4043 6.37444 22.3501H25.3052H25.2944ZM25.3919 18.5817V20.4632H6.26611V18.5817H25.3865H25.3919ZM25.3052 16.7002H6.35278C6.39069 16.5538 6.43944 16.4454 6.47736 16.3749C6.64527 16.1472 7.04068 15.7947 7.94524 15.4423C8.3244 15.2905 8.76855 15.1712 9.28312 15.0736C9.83561 14.9706 10.4693 14.9001 11.1789 14.8621C11.2764 14.8567 11.3793 14.8513 11.4822 14.8459C11.8181 14.835 12.1647 14.8242 12.533 14.8242H19.1196C19.4825 14.8242 19.8345 14.8296 20.1704 14.8459C20.2733 14.8459 20.3762 14.8513 20.4737 14.8621C20.6904 14.873 20.9016 14.8892 21.102 14.9055C21.2699 14.9163 21.4324 14.938 21.5895 14.9543C21.6003 14.9543 21.6166 14.9543 21.6274 14.9543C21.7087 14.9651 21.7899 14.976 21.8712 14.9868C22.0282 15.0085 22.1799 15.0302 22.3261 15.0627C22.337 15.0627 22.3478 15.0627 22.3641 15.0682C22.8786 15.1603 23.3282 15.285 23.7074 15.4369C24.6173 15.7947 25.0073 16.1417 25.1752 16.3695C25.2186 16.4454 25.2619 16.5484 25.2998 16.6948L25.3052 16.7002Z" fill="#FFD22B"/>
<path d="M28.2088 13.8102L27.8351 14.0651L27.9759 14.4934C28.1655 15.0736 27.6076 15.9845 26.5026 16.5918C26.4376 16.2665 26.3401 15.9899 26.2047 15.7568C26.183 15.7242 26.1613 15.6917 26.1397 15.6592C25.7605 15.1441 25.0889 14.694 24.1518 14.3199C24.0543 14.282 23.946 14.2386 23.8376 14.206C24.0814 14.1247 24.3035 14.038 24.5093 13.9404C25.403 13.5283 25.9934 13.0294 26.3184 12.4113C26.3347 12.3842 26.3455 12.3517 26.3563 12.3354C26.4647 12.086 26.5297 11.7444 26.5676 11.2943C27.1797 11.1263 27.7971 11.0991 28.3117 11.2076C28.4688 11.2401 28.68 11.2998 28.8804 11.4082C29.0754 11.5167 29.2542 11.6739 29.3354 11.9016C29.5358 12.4438 29.0754 13.2301 28.2142 13.8102H28.2088ZM7.13846 13.9404C6.25015 13.5283 5.65975 13.0294 5.34017 12.4167C5.32392 12.3896 5.31309 12.3679 5.30226 12.3408C5.19393 12.0914 5.12351 11.7444 5.0856 11.2943C4.71186 11.1967 4.3327 11.1425 3.98062 11.1425C3.75855 11.1425 3.54188 11.1642 3.34689 11.2076C3.03273 11.2727 2.49108 11.4516 2.32316 11.9016C2.29066 11.9884 2.27441 12.0751 2.27441 12.1727C2.27441 12.6824 2.71857 13.3222 3.44439 13.8102L3.81813 14.0651L3.6773 14.4934C3.48772 15.0682 4.04562 15.9791 5.14518 16.5918C5.21018 16.2665 5.31309 15.9899 5.4485 15.7568C5.46475 15.7188 5.48642 15.6917 5.50809 15.6646C5.88724 15.1495 6.55889 14.694 7.50679 14.3199C7.60429 14.282 7.71262 14.2386 7.82095 14.206C7.5772 14.1247 7.34971 14.038 7.14388 13.9349L7.13846 13.9404Z" fill="#ECEDF3"/>
<path d="M19.2662 7.60186C18.8925 7.60186 18.5891 7.91093 18.5891 8.28505V9.53215C18.5891 9.9117 18.8925 10.2153 19.2662 10.2153C19.6399 10.2153 19.9487 9.9117 19.9487 9.53215V8.28505C19.9487 7.91093 19.6454 7.60186 19.2662 7.60186ZM12.3872 7.60186C12.008 7.60186 11.7047 7.91093 11.7047 8.28505V9.53215C11.7047 9.9117 12.008 10.2153 12.3872 10.2153C12.7664 10.2153 13.0643 9.9117 13.0643 9.53215V8.28505C13.0643 7.91093 12.7609 7.60186 12.3872 7.60186ZM12.3872 7.60186C12.008 7.60186 11.7047 7.91093 11.7047 8.28505V9.53215C11.7047 9.9117 12.008 10.2153 12.3872 10.2153C12.7664 10.2153 13.0643 9.9117 13.0643 9.53215V8.28505C13.0643 7.91093 12.7609 7.60186 12.3872 7.60186ZM19.2662 7.60186C18.8925 7.60186 18.5891 7.91093 18.5891 8.28505V9.53215C18.5891 9.9117 18.8925 10.2153 19.2662 10.2153C19.6399 10.2153 19.9487 9.9117 19.9487 9.53215V8.28505C19.9487 7.91093 19.6454 7.60186 19.2662 7.60186ZM19.2662 7.60186C18.8925 7.60186 18.5891 7.91093 18.5891 8.28505V9.53215C18.5891 9.9117 18.8925 10.2153 19.2662 10.2153C19.6399 10.2153 19.9487 9.9117 19.9487 9.53215V8.28505C19.9487 7.91093 19.6454 7.60186 19.2662 7.60186ZM12.3872 7.60186C12.008 7.60186 11.7047 7.91093 11.7047 8.28505V9.53215C11.7047 9.9117 12.008 10.2153 12.3872 10.2153C12.7664 10.2153 13.0643 9.9117 13.0643 9.53215V8.28505C13.0643 7.91093 12.7609 7.60186 12.3872 7.60186ZM12.3872 7.60186C12.008 7.60186 11.7047 7.91093 11.7047 8.28505V9.53215C11.7047 9.9117 12.008 10.2153 12.3872 10.2153C12.7664 10.2153 13.0643 9.9117 13.0643 9.53215V8.28505C13.0643 7.91093 12.7609 7.60186 12.3872 7.60186ZM19.2662 7.60186C18.8925 7.60186 18.5891 7.91093 18.5891 8.28505V9.53215C18.5891 9.9117 18.8925 10.2153 19.2662 10.2153C19.6399 10.2153 19.9487 9.9117 19.9487 9.53215V8.28505C19.9487 7.91093 19.6454 7.60186 19.2662 7.60186ZM19.2662 7.60186C18.8925 7.60186 18.5891 7.91093 18.5891 8.28505V9.53215C18.5891 9.9117 18.8925 10.2153 19.2662 10.2153C19.6399 10.2153 19.9487 9.9117 19.9487 9.53215V8.28505C19.9487 7.91093 19.6454 7.60186 19.2662 7.60186ZM12.3872 7.60186C12.008 7.60186 11.7047 7.91093 11.7047 8.28505V9.53215C11.7047 9.9117 12.008 10.2153 12.3872 10.2153C12.7664 10.2153 13.0643 9.9117 13.0643 9.53215V8.28505C13.0643 7.91093 12.7609 7.60186 12.3872 7.60186ZM12.3872 7.60186C12.008 7.60186 11.7047 7.91093 11.7047 8.28505V9.53215C11.7047 9.9117 12.008 10.2153 12.3872 10.2153C12.7664 10.2153 13.0643 9.9117 13.0643 9.53215V8.28505C13.0643 7.91093 12.7609 7.60186 12.3872 7.60186ZM19.2662 7.60186C18.8925 7.60186 18.5891 7.91093 18.5891 8.28505V9.53215C18.5891 9.9117 18.8925 10.2153 19.2662 10.2153C19.6399 10.2153 19.9487 9.9117 19.9487 9.53215V8.28505C19.9487 7.91093 19.6454 7.60186 19.2662 7.60186ZM19.2662 7.60186C18.8925 7.60186 18.5891 7.91093 18.5891 8.28505V9.53215C18.5891 9.9117 18.8925 10.2153 19.2662 10.2153C19.6399 10.2153 19.9487 9.9117 19.9487 9.53215V8.28505C19.9487 7.91093 19.6454 7.60186 19.2662 7.60186ZM12.3872 7.60186C12.008 7.60186 11.7047 7.91093 11.7047 8.28505V9.53215C11.7047 9.9117 12.008 10.2153 12.3872 10.2153C12.7664 10.2153 13.0643 9.9117 13.0643 9.53215V8.28505C13.0643 7.91093 12.7609 7.60186 12.3872 7.60186ZM30.5759 12.1782C30.5759 11.945 30.538 11.7119 30.4568 11.4895C30.1859 10.7467 29.5143 10.2316 28.5556 10.031C27.9543 9.90628 27.2773 9.91712 26.5894 10.0581V6.91325C26.5894 6.17041 26.4594 5.57398 26.2048 5.14563C26.1885 5.11309 26.1669 5.08056 26.1452 5.05345C25.766 4.53835 25.0944 4.08289 24.1519 3.70876C23.2094 3.33463 21.942 3.1069 20.3712 3.03641L20.8966 1.94113C21.0374 1.64292 20.9128 1.28505 20.6203 1.14408C20.3224 0.99768 19.9649 1.12781 19.8241 1.42061L19.0658 2.99845H12.6039L11.8455 1.42061C11.7047 1.12239 11.3472 0.99768 11.0493 1.14408C10.7514 1.28505 10.6268 1.64292 10.7731 1.94113L11.2985 3.03641C9.72226 3.11232 8.45479 3.34005 7.51773 3.70876C6.57525 4.08289 5.9036 4.53292 5.51361 5.05345C5.49736 5.08056 5.48111 5.10767 5.45944 5.1402C5.20487 5.56855 5.07487 6.16499 5.07487 6.90783V10.0473C4.39239 9.90628 3.71532 9.89543 3.11408 10.0256C2.63201 10.1232 2.22577 10.3021 1.9062 10.5515C1.58662 10.8009 1.34829 11.1154 1.21288 11.4841C0.844556 12.4872 1.33204 13.6693 2.4641 14.5639C2.36119 15.8056 3.41199 17.1557 5.08029 17.8823V21.206C5.08029 22.0085 5.16154 22.5779 5.31861 22.9466C5.32945 22.9737 5.34028 22.9954 5.35653 23.0225C5.68152 23.6352 6.27192 24.134 7.16024 24.5461C8.40062 25.1317 10.2097 25.4245 12.5497 25.4245C13.4218 25.4245 14.1638 25.739 14.7217 26.0914C15.128 26.3462 15.4313 26.6174 15.6317 26.8126C15.6859 26.8722 15.7617 26.8993 15.8429 26.8993C15.9242 26.8993 16 26.8668 16.0542 26.8126C16.2492 26.6174 16.5579 26.3408 16.9588 26.0914C17.5167 25.739 18.2587 25.4245 19.1308 25.4245C21.4707 25.4245 23.2853 25.1263 24.5202 24.5461C25.4086 24.134 25.999 23.6352 26.3239 23.0225C26.3348 22.9899 26.3456 22.9628 26.3564 22.9411C26.5135 22.5724 26.5894 22.0085 26.5894 21.206V17.8823C28.2576 17.1557 29.3139 15.8002 29.2055 14.5639C30.083 13.8645 30.5759 12.9969 30.5759 12.1727V12.1782ZM28.2089 13.8102L27.8352 14.0651L27.976 14.4934C28.1656 15.0736 27.6077 15.9845 26.5027 16.5918C26.4377 16.2665 26.3402 15.9899 26.2048 15.7568C26.1831 15.7242 26.1614 15.6917 26.1398 15.6592C25.7606 15.1441 25.089 14.694 24.1519 14.3199C24.0544 14.282 23.9461 14.2386 23.8378 14.206C24.0815 14.1247 24.3036 14.038 24.5094 13.9404C25.4031 13.5283 25.9935 13.0294 26.3185 12.4113C26.3348 12.3842 26.3456 12.3517 26.3564 12.3354C26.4648 12.086 26.5298 11.7444 26.5677 11.2943C27.1798 11.1263 27.7972 11.0992 28.3118 11.2076C28.4689 11.2401 28.6801 11.2998 28.8806 11.4082C29.0755 11.5167 29.2543 11.6739 29.3355 11.9016C29.536 12.4438 29.0755 13.2301 28.2143 13.8102H28.2089ZM21.5953 14.9489C21.5953 14.9489 21.6224 14.9489 21.6332 14.9489C21.7145 14.9597 21.7957 14.9706 21.877 14.9814C22.034 15.0031 22.1857 15.0248 22.332 15.0573C22.3428 15.0573 22.3536 15.0573 22.3699 15.0627C22.8844 15.1549 23.334 15.2796 23.7132 15.4315C24.6232 15.7893 25.0131 16.1363 25.1811 16.3641C25.2244 16.44 25.2677 16.543 25.3056 16.6894H6.35317C6.39109 16.543 6.43984 16.4346 6.47775 16.3641C6.64567 16.1363 7.04107 15.7839 7.94564 15.4315C8.32479 15.2796 8.76895 15.1603 9.28352 15.0627C9.59768 15.0031 9.9335 14.9597 10.291 14.9163C10.5727 14.8892 10.8706 14.8621 11.1793 14.8459C11.2768 14.8404 11.3797 14.835 11.4826 14.8296C11.8185 14.8187 12.1651 14.8079 12.5334 14.8079H19.12C19.4829 14.8079 19.8349 14.8133 20.1708 14.8296C20.2737 14.8296 20.3766 14.835 20.4741 14.8459C20.6907 14.8567 20.902 14.873 21.1024 14.8892C21.1891 14.8947 21.2757 14.9055 21.357 14.9109C21.4382 14.9163 21.5141 14.9272 21.5899 14.938L21.5953 14.9489ZM6.26651 6.91325C6.26651 6.25717 6.38567 5.921 6.47775 5.76375C6.64567 5.53602 7.03566 5.18358 7.94564 4.82572C8.86645 4.46244 10.1772 4.25639 11.8564 4.21844C12.073 4.21302 12.3005 4.20759 12.528 4.20759H19.1145C19.3474 4.20759 19.5695 4.20759 19.7862 4.21844C21.4653 4.25639 22.7815 4.46244 23.7023 4.83114C24.6069 5.18358 24.9969 5.5306 25.1702 5.76375C25.2677 5.93184 25.3815 6.26801 25.3815 6.91325V10.6003C25.3815 10.7847 25.3815 10.9473 25.3706 11.0883C25.3544 11.4624 25.3056 11.6685 25.2786 11.7769C25.2731 11.8149 25.2623 11.8366 25.2515 11.8583C25.0565 12.227 24.6502 12.5577 24.0003 12.8559C23.7348 12.9806 23.4261 13.0945 23.0903 13.1921C22.8086 13.2734 22.4999 13.3385 22.1695 13.3981C21.942 13.4361 21.6982 13.4741 21.4436 13.5012C20.7503 13.5825 19.9758 13.6259 19.1145 13.6259H12.528C11.6722 13.6259 10.8922 13.5825 10.1989 13.5066C9.94434 13.4795 9.70601 13.4415 9.4731 13.3981C9.14269 13.3385 8.83395 13.2734 8.54687 13.1921C8.21105 13.0999 7.90772 12.9861 7.63689 12.8614C6.99232 12.5631 6.58608 12.2378 6.39109 11.8691C6.38567 11.8528 6.37484 11.8257 6.35859 11.7823C6.32609 11.6685 6.28276 11.4624 6.26651 11.0937C6.26109 10.9528 6.25568 10.7955 6.25568 10.6057V6.91867L6.26651 6.91325ZM5.50819 15.6646C5.50819 15.6646 5.47028 15.7188 5.44861 15.7514C5.3132 15.9899 5.21028 16.2665 5.14529 16.5918C4.04573 15.9845 3.48783 15.0736 3.6774 14.4934L3.81823 14.0651L3.44449 13.8102C2.71868 13.3168 2.27452 12.6824 2.27452 12.1727C2.27452 12.0806 2.29077 11.9884 2.32327 11.9016C2.49118 11.4516 3.03284 11.2727 3.347 11.2076C3.54199 11.1642 3.75865 11.1425 3.98073 11.1425C4.33281 11.1425 4.71196 11.1913 5.0857 11.2943C5.1182 11.7444 5.18862 12.086 5.30237 12.3408C5.3132 12.3625 5.32403 12.3896 5.34028 12.4167C5.66527 13.0294 6.25568 13.5283 7.13857 13.9404C7.34982 14.038 7.57189 14.1301 7.81564 14.2115C7.70731 14.244 7.60439 14.2874 7.50148 14.3253C6.559 14.6995 5.88735 15.1495 5.50278 15.67L5.50819 15.6646ZM25.2515 22.4748C25.0565 22.8435 24.6448 23.1689 24.0057 23.4671C22.9278 23.9768 21.2866 24.2316 19.1254 24.2316H12.5389C10.3722 24.2316 8.73103 23.9768 7.65856 23.4671C7.01399 23.1689 6.60775 22.8435 6.40734 22.4694C6.39651 22.4477 6.38567 22.4043 6.36942 22.3501H25.3002C25.2894 22.4098 25.2731 22.4477 25.2623 22.4748H25.2515ZM25.3869 20.4686H6.26651V18.5871H25.3869V20.4686ZM19.2662 10.2153C19.6454 10.2153 19.9487 9.9117 19.9487 9.53215V8.28505C19.9487 7.91093 19.6454 7.60186 19.2662 7.60186C18.887 7.60186 18.5891 7.91093 18.5891 8.28505V9.53215C18.5891 9.9117 18.8925 10.2153 19.2662 10.2153ZM12.3872 10.2153C12.7609 10.2153 13.0643 9.9117 13.0643 9.53215V8.28505C13.0643 7.91093 12.7609 7.60186 12.3872 7.60186C12.0135 7.60186 11.7047 7.91093 11.7047 8.28505V9.53215C11.7047 9.9117 12.008 10.2153 12.3872 10.2153ZM12.3872 7.60186C12.008 7.60186 11.7047 7.91093 11.7047 8.28505V9.53215C11.7047 9.9117 12.008 10.2153 12.3872 10.2153C12.7664 10.2153 13.0643 9.9117 13.0643 9.53215V8.28505C13.0643 7.91093 12.7609 7.60186 12.3872 7.60186ZM19.2662 7.60186C18.8925 7.60186 18.5891 7.91093 18.5891 8.28505V9.53215C18.5891 9.9117 18.8925 10.2153 19.2662 10.2153C19.6399 10.2153 19.9487 9.9117 19.9487 9.53215V8.28505C19.9487 7.91093 19.6454 7.60186 19.2662 7.60186ZM19.2662 7.60186C18.8925 7.60186 18.5891 7.91093 18.5891 8.28505V9.53215C18.5891 9.9117 18.8925 10.2153 19.2662 10.2153C19.6399 10.2153 19.9487 9.9117 19.9487 9.53215V8.28505C19.9487 7.91093 19.6454 7.60186 19.2662 7.60186ZM12.3872 7.60186C12.008 7.60186 11.7047 7.91093 11.7047 8.28505V9.53215C11.7047 9.9117 12.008 10.2153 12.3872 10.2153C12.7664 10.2153 13.0643 9.9117 13.0643 9.53215V8.28505C13.0643 7.91093 12.7609 7.60186 12.3872 7.60186ZM12.3872 7.60186C12.008 7.60186 11.7047 7.91093 11.7047 8.28505V9.53215C11.7047 9.9117 12.008 10.2153 12.3872 10.2153C12.7664 10.2153 13.0643 9.9117 13.0643 9.53215V8.28505C13.0643 7.91093 12.7609 7.60186 12.3872 7.60186ZM19.2662 7.60186C18.8925 7.60186 18.5891 7.91093 18.5891 8.28505V9.53215C18.5891 9.9117 18.8925 10.2153 19.2662 10.2153C19.6399 10.2153 19.9487 9.9117 19.9487 9.53215V8.28505C19.9487 7.91093 19.6454 7.60186 19.2662 7.60186ZM19.2662 7.60186C18.8925 7.60186 18.5891 7.91093 18.5891 8.28505V9.53215C18.5891 9.9117 18.8925 10.2153 19.2662 10.2153C19.6399 10.2153 19.9487 9.9117 19.9487 9.53215V8.28505C19.9487 7.91093 19.6454 7.60186 19.2662 7.60186ZM12.3872 7.60186C12.008 7.60186 11.7047 7.91093 11.7047 8.28505V9.53215C11.7047 9.9117 12.008 10.2153 12.3872 10.2153C12.7664 10.2153 13.0643 9.9117 13.0643 9.53215V8.28505C13.0643 7.91093 12.7609 7.60186 12.3872 7.60186ZM12.3872 7.60186C12.008 7.60186 11.7047 7.91093 11.7047 8.28505V9.53215C11.7047 9.9117 12.008 10.2153 12.3872 10.2153C12.7664 10.2153 13.0643 9.9117 13.0643 9.53215V8.28505C13.0643 7.91093 12.7609 7.60186 12.3872 7.60186ZM19.2662 7.60186C18.8925 7.60186 18.5891 7.91093 18.5891 8.28505V9.53215C18.5891 9.9117 18.8925 10.2153 19.2662 10.2153C19.6399 10.2153 19.9487 9.9117 19.9487 9.53215V8.28505C19.9487 7.91093 19.6454 7.60186 19.2662 7.60186Z" fill="#292929"/>
<path d="M68.0913 22.3911C66.1298 22.3911 64.5377 22.1387 63.3622 21.634C62.1261 21.1027 61.5283 20.3854 61.5283 19.4557V17.1778C61.5283 16.2015 62.0657 15.471 63.1606 14.9397C64.2892 14.3951 65.8611 14.1162 67.8428 14.1162H78.0938C78.2147 14.1162 78.3222 14.0631 78.4028 13.9768C78.4834 13.8904 78.517 13.7709 78.5036 13.658C78.4297 13.0271 78.208 12.5489 77.8386 12.2501C77.8386 12.2501 77.8386 12.2501 77.8318 12.2501C77.3213 11.8649 76.3876 11.6789 74.9702 11.6789H63.248C62.9054 11.6789 62.6232 11.4 62.6232 11.0613V10.4503C62.6232 10.1116 62.9054 9.8327 63.248 9.8327H75.5747C77.946 9.8327 79.6657 10.0917 80.8413 10.6363C81.9699 11.1543 82.514 11.9047 82.514 12.9275V19.3561C82.514 20.2526 82.0035 20.9632 80.9488 21.5211C79.874 22.0988 78.376 22.3911 76.5018 22.3911H68.1048H68.0913ZM68.8639 15.823C67.5472 15.823 66.6135 16.0421 66.0761 16.4805C65.7268 16.7594 65.5588 17.1379 65.5588 17.6227V18.8912C65.5588 19.4358 65.9081 19.8541 66.6 20.1331C67.2315 20.3854 68.0107 20.5183 68.9176 20.5183H75.2187C77.9125 20.5183 78.4767 19.6549 78.4767 18.931V16.4473C78.4767 16.0488 78.0602 15.8363 77.2676 15.8363H68.8639V15.823ZM115.235 22.318C115.578 22.318 115.86 22.0391 115.86 21.7004V13.9635C115.86 12.7282 115.323 11.7453 114.255 11.0281C113.166 10.2976 111.648 9.92567 109.747 9.92567H105.824C103.674 9.92567 101.995 10.4238 100.826 11.4133C100.746 11.4797 100.651 11.5129 100.557 11.5129C100.463 11.5129 100.356 11.4797 100.282 11.4066C99.664 10.8621 99.0124 10.4769 98.3541 10.271C97.6218 10.0452 96.6008 9.92567 95.3379 9.92567H91.3342C89.245 9.92567 87.6664 10.271 86.6386 10.9484C85.631 11.6125 85.1204 12.622 85.1204 13.9568V21.6937C85.1204 22.0324 85.4026 22.3114 85.7452 22.3114H88.5195C88.6875 22.3114 88.8487 22.2449 88.9629 22.132C89.0771 22.0192 89.1442 21.8531 89.1442 21.6937L89.0972 14.6276C89.0972 14.0232 89.2853 13.5318 89.6548 13.1533C90.2325 12.5688 91.2603 12.27 92.7046 12.27C94.8945 12.27 96.2313 12.3298 96.8023 12.4427C96.8224 12.4427 96.8359 12.4493 96.856 12.4559C96.8628 12.4559 96.8695 12.4559 96.8829 12.4626C97.9712 12.7814 98.5489 13.5517 98.5489 14.694V21.6937C98.5489 22.0324 98.831 22.3114 99.1736 22.3114H101.901C102.244 22.3114 102.526 22.0324 102.526 21.6937V14.694C102.526 13.8705 102.754 13.2927 103.204 12.9673C103.849 12.5024 104.695 12.2633 105.717 12.2633C107.98 12.2633 109.317 12.3032 109.814 12.3962L110.063 12.4427C110.103 12.4493 110.143 12.4626 110.177 12.4825C110.204 12.4958 110.237 12.5091 110.264 12.5224C111.312 12.8876 111.85 13.5916 111.85 14.6209V21.6871C111.85 22.0258 112.132 22.3047 112.474 22.3047H115.256L115.235 22.318ZM149.73 22.3844C147.13 22.3844 145.155 22.0723 143.872 21.4613C142.596 20.857 141.998 20.0135 141.998 18.8115V16.6996C141.998 15.6968 142.959 14.8932 144.94 14.2358C145.108 14.176 145.223 14.0232 145.223 13.8439C145.223 13.6646 145.102 13.5119 144.934 13.4588C142.952 12.8345 141.951 12.011 141.951 11.0015V9.02912C141.951 7.88021 142.569 7.06999 143.893 6.48558C145.229 5.89452 147.271 5.59566 149.965 5.59566H157.986C160.68 5.59566 162.722 5.89452 164.059 6.48558C165.382 7.06999 166 7.88021 166 9.02912V11.0015C166 12.0043 165.019 12.8013 163.011 13.4521C162.843 13.5052 162.722 13.6646 162.722 13.8439C162.722 14.0232 162.836 14.176 163.011 14.2358C164.966 14.8733 165.953 15.7034 165.953 16.7063V18.8181C165.953 20.0202 165.355 20.8636 164.072 21.4679C162.776 22.0789 160.794 22.3911 158.188 22.3911H149.737L149.73 22.3844ZM150.805 14.9065C149.71 14.9065 148.729 15.046 147.896 15.3315C146.996 15.6304 146.546 16.0953 146.546 16.6996V18.2802C146.546 18.951 146.915 19.4557 147.654 19.7811C148.125 19.9936 149.038 20.246 150.711 20.246H157.207C158.893 20.246 159.813 19.9936 160.283 19.7811C161.022 19.4557 161.392 18.951 161.392 18.2802V16.6996C161.392 16.0886 160.942 15.6304 160.042 15.3315C159.209 15.0526 158.221 14.9065 157.106 14.9065H150.805ZM150.933 7.76067C149.166 7.76067 148.205 8.00639 147.708 8.21227C146.936 8.53768 146.539 9.03576 146.539 9.69324V10.8421C146.539 11.493 146.909 11.9911 147.648 12.3098C148.118 12.5157 149.031 12.7614 150.704 12.7614H157.2C158.886 12.7614 159.8 12.5157 160.277 12.3098C161.016 11.9911 161.385 11.4996 161.385 10.8421V9.69324C161.385 9.02912 160.996 8.53104 160.223 8.21227C159.726 8.00639 158.765 7.76067 156.999 7.76067H150.926H150.933ZM51.687 22.3844C53.9576 22.3844 55.7847 22.0059 57.1215 21.2621C57.1215 21.2621 57.1215 21.2621 57.1283 21.2621C58.3374 20.6179 58.9218 19.6881 58.9218 18.4263V13.8971C58.9218 13.5584 58.6397 13.2794 58.2971 13.2794H48.382C48.0394 13.2794 47.7572 13.5584 47.7572 13.8971V14.508C47.7572 14.8467 48.0394 15.1257 48.382 15.1257H53.9508C54.1792 15.1257 54.3673 15.3116 54.3673 15.5374V18.1739C54.3673 19.5686 53.0372 20.2792 50.4107 20.2792H43.9618C42.4839 20.2792 41.4561 20.153 40.8112 19.8874C39.9581 19.5287 39.5215 18.9178 39.5215 18.0743V9.87919C39.5215 9.04905 39.9245 8.46463 40.7105 8.13257C41.3688 7.85365 42.4369 7.72082 44.0626 7.72082H56.6043C56.9469 7.72082 57.229 7.4419 57.229 7.1032V6.23985C57.229 5.90116 56.9469 5.62223 56.6043 5.62223H43.0348C40.5694 5.62223 38.6616 5.88123 37.3584 6.39924C36.3709 6.78442 35.679 7.22938 35.3095 7.72746C35.2961 7.74075 35.2894 7.76067 35.276 7.78059C35.0408 8.17242 34.9199 8.7502 34.9199 9.48736V18.1806C34.9199 19.0107 34.9938 19.5951 35.1416 19.9272C35.1416 19.9405 35.155 19.9538 35.1618 19.967C35.4708 20.5448 36.0552 21.023 36.9688 21.4414C38.3325 22.0789 40.3746 22.4043 43.0348 22.4043H51.687V22.3844ZM125.701 22.3844C123.323 22.3844 121.624 22.152 120.509 21.6672H120.495C119.125 21.1027 118.46 20.2526 118.46 19.0572V12.954C118.46 11.9313 118.997 11.1808 120.112 10.6628C121.268 10.1249 122.967 9.85926 125.298 9.85926H133.024C135.193 9.85926 136.772 10.1382 137.847 10.7093C138.881 11.2605 139.385 12.0575 139.385 13.1599V15.1987C139.385 16.0023 138.505 16.6598 137.376 16.7063H137.35L122.954 16.693C122.846 16.693 122.739 16.7395 122.658 16.8125C122.578 16.8922 122.537 16.9918 122.537 17.1047V18.6189C122.537 19.3627 122.947 19.9139 123.753 20.2526C123.767 20.2526 123.78 20.2659 123.794 20.2659H123.807C124.351 20.4585 125.218 20.5448 126.514 20.5448H137.659C138.001 20.5448 138.283 20.8238 138.283 21.1624V21.7734C138.283 22.1121 138.001 22.3911 137.659 22.3911H125.688L125.701 22.3844ZM126.729 11.6723C125.03 11.6723 124.103 11.9047 123.619 12.104C122.867 12.4095 122.49 12.8876 122.49 13.5185V14.5545C122.49 14.7803 122.678 14.9663 122.907 14.9663H134.844C135.072 14.9663 135.26 14.7803 135.26 14.5545V13.3259C135.26 12.9341 135.086 12.3962 134.273 12.0508C133.675 11.7985 132.748 11.6656 131.579 11.6656H126.729V11.6723Z" fill="#ECEDF3"/>
</g>
<defs>
<clipPath id="clip0_3324_33600">
<rect width="166" height="28" fill="white"/>
</clipPath>
</defs>
</svg>
